<?xml version="1.0" standalone="no"?>
<!DOCTYPE svg PUBLIC "-//W3C//DTD SVG 20010904//EN"
 "http://www.w3.org/TR/2001/REC-SVG-20010904/DTD/svg10.dtd">
<svg version="1.0" xmlns="http://www.w3.org/2000/svg"
 width="500.000000pt" height="500.000000pt" viewBox="0 0 500.000000 500.000000"
 preserveAspectRatio="xMidYMid meet">
<metadata>
Created by potrace 1.11, written by Peter Selinger 2001-2013
</metadata>
<g transform="translate(0.000000,500.000000) scale(0.100000,-0.100000)"
fill="#000000" stroke="none">
<path d="M2545 3901 c17 -7 16 -9 -12 -15 -50 -11 -169 -72 -253 -129 -41 -29
-77 -54 -80 -57 -3 -3 -42 -40 -87 -83 -45 -42 -80 -77 -77 -77 2 0 -9 -15
-26 -32 -16 -18 -56 -69 -87 -113 -56 -78 -73 -105 -98 -152 -7 -13 -15 -21
-18 -18 -4 3 -5 2 -2 -2 8 -11 -32 -66 -103 -139 -38 -39 -101 -119 -140 -178
l-72 -106 -23 37 c-41 67 -50 102 -50 192 1 81 31 239 52 266 5 5 11 21 15 35
7 28 92 121 176 192 101 86 115 100 53 53 -134 -99 -291 -278 -385 -438 -46
-78 -123 -246 -116 -253 3 -2 17 26 32 64 29 70 104 213 130 247 13 17 13 12
-1 -35 -12 -39 -17 -91 -18 -175 0 -111 2 -124 27 -172 15 -28 32 -54 38 -58
15 -9 12 -28 -2 -19 -8 4 -10 3 -5 -2 5 -5 14 -9 20 -9 18 0 15 -24 -10 -90
-27 -67 -52 -160 -55 -199 -1 -14 -6 -26 -11 -26 -4 0 -5 -4 -2 -10 12 -20
-19 -9 -122 41 -88 42 -104 53 -100 70 3 10 2 19 -3 19 -9 0 -25 -238 -16
-247 3 -4 6 20 6 51 0 49 3 57 16 52 9 -3 18 -6 20 -6 3 0 2 -5 -2 -12 -4 -7
-3 -8 4 -4 14 8 92 -30 92 -45 0 -6 4 -7 10 -4 5 3 26 -1 45 -11 l35 -16 0
-72 c0 -70 12 -201 26 -283 l7 -43 -32 0 c-17 0 -47 -6 -66 -14 -18 -8 -37
-11 -41 -8 -4 4 -4 2 -1 -4 4 -7 0 -17 -8 -24 -12 -10 -16 -8 -24 11 -19 47
-11 5 10 -51 11 -31 26 -57 34 -57 8 0 11 7 7 16 -3 9 -2 13 2 10 4 -4 17 3
30 16 23 23 94 42 106 28 4 -4 17 -37 30 -73 28 -78 109 -234 155 -299 33 -45
95 -178 98 -211 1 -8 8 -20 16 -26 8 -7 11 -16 6 -24 -5 -8 -4 -11 1 -7 5 3
17 -8 26 -24 10 -16 13 -31 7 -34 -5 -4 -9 -1 -9 4 0 6 -5 11 -11 11 -15 0
-95 72 -91 83 1 5 -2 6 -7 3 -5 -3 -35 24 -67 61 -33 37 -72 80 -88 97 -24 26
-23 24 5 -14 41 -55 178 -193 239 -240 24 -19 41 -29 37 -22 -5 6 -4 12 2 12
6 0 11 -7 11 -15 0 -8 26 -32 58 -53 63 -43 118 -73 92 -50 -38 33 -148 214
-136 225 3 3 20 -9 38 -26 18 -18 69 -56 113 -85 271 -182 602 -260 902 -214
106 16 133 15 381 -17 18 -2 30 0 27 5 -3 6 1 7 9 4 8 -3 63 17 121 44 101 49
125 64 88 56 -43 -9 -106 -15 -213 -20 l-115 -5 118 60 c166 85 327 212 417
330 14 18 41 52 60 76 55 68 130 219 176 350 36 104 45 120 65 123 13 2 65 15
114 29 134 37 127 37 121 0 -5 -24 -4 -27 3 -12 14 32 43 186 37 193 -3 3 -6
-4 -6 -16 0 -23 -9 -31 -60 -50 -24 -8 -202 -52 -215 -52 0 0 0 84 0 187 0
218 -13 296 -76 466 -63 170 -159 321 -285 449 l-75 77 48 7 c72 12 298 9 382
-6 65 -11 75 -16 90 -42 25 -46 44 -67 25 -28 -24 51 -100 166 -115 175 -8 5
-10 4 -5 -3 5 -8 -1 -11 -18 -10 -15 1 -26 5 -26 8 0 9 -362 -7 -418 -19 -46
-9 -57 -8 -80 6 -15 10 -29 21 -32 25 -15 19 -257 130 -335 153 -336 97 -688
62 -992 -100 -47 -25 -88 -45 -91 -45 -3 0 5 11 18 25 13 14 21 25 17 25 -3 0
5 12 18 26 14 15 25 31 25 37 0 31 214 250 320 328 52 38 170 102 170 92 0 -4
4 -3 8 3 13 21 156 66 232 74 65 6 55 7 -75 8 -83 0 -141 -3 -130 -7z"/>
<path d="M2463 3893 c9 -2 25 -2 35 0 9 3 1 5 -18 5 -19 0 -27 -2 -17 -5z"/>
<path d="M2858 3893 c12 -2 30 -2 40 0 9 3 -1 5 -23 4 -22 0 -30 -2 -17 -4z"/>
<path d="M2403 3883 c9 -2 23 -2 30 0 6 3 -1 5 -18 5 -16 0 -22 -2 -12 -5z"/>
<path d="M2938 3883 c6 -2 18 -2 25 0 6 3 1 5 -13 5 -14 0 -19 -2 -12 -5z"/>
<path d="M2348 3873 c6 -2 18 -2 25 0 6 3 1 5 -13 5 -14 0 -19 -2 -12 -5z"/>
<path d="M3000 3870 c14 -4 34 -8 45 -8 16 0 15 2 -5 8 -14 4 -34 8 -45 8 -16
0 -15 -2 5 -8z"/>
<path d="M2308 3863 c7 -3 16 -2 19 1 4 3 -2 6 -13 5 -11 0 -14 -3 -6 -6z"/>
<path d="M2245 3850 c-13 -5 -14 -9 -5 -9 8 0 24 4 35 9 13 5 14 9 5 9 -8 0
-24 -4 -35 -9z"/>
<path d="M3085 3850 c11 -5 27 -9 35 -9 9 0 8 4 -5 9 -11 5 -27 9 -35 9 -9 0
-8 -4 5 -9z"/>
<path d="M3170 3825 c46 -18 64 -17 25 0 -16 8 -37 14 -45 14 -8 0 1 -7 20
-14z"/>
<path d="M2100 3800 c-8 -5 -12 -11 -10 -14 3 -2 14 2 24 10 22 15 10 19 -14
4z"/>
<path d="M3269 3789 c24 -11 46 -18 48 -15 4 4 -73 36 -85 35 -4 0 13 -9 37
-20z"/>
<path d="M2030 3769 c-26 -15 -29 -18 -10 -13 27 7 71 34 55 34 -6 -1 -26 -10
-45 -21z"/>
<path d="M3379 3740 c30 -17 56 -28 59 -26 4 5 -92 56 -105 56 -4 0 16 -14 46
-30z"/>
<path d="M1938 3724 c-27 -13 -48 -27 -48 -29 0 -3 23 6 50 20 28 14 50 28 50
30 0 7 1 7 -52 -21z"/>
<path d="M3450 3707 c5 -5 72 -50 133 -90 52 -34 26 -7 -30 31 -55 37 -114 71
-103 59z"/>
<path d="M1843 3669 c-18 -12 -33 -23 -33 -25 0 -7 58 25 65 36 9 14 5 13 -32
-11z"/>
<path d="M3620 3596 c0 -2 8 -10 18 -17 15 -13 16 -12 3 4 -13 16 -21 21 -21
13z"/>
<path d="M3660 3563 c0 -4 19 -21 41 -38 22 -16 60 -51 85 -77 24 -25 49 -50
56 -54 21 -11 -62 73 -124 128 -32 27 -58 46 -58 41z"/>
<path d="M3884 3338 c21 -27 40 -48 43 -48 8 0 -34 54 -58 75 -13 11 -6 -1 15
-27z"/>
<path d="M4071 3055 c0 -5 13 -35 29 -65 16 -30 29 -50 29 -45 0 6 -13 35 -29
65 -16 30 -29 51 -29 45z"/>
<path d="M4130 2925 c0 -5 5 -17 10 -25 5 -8 10 -10 10 -5 0 6 -5 17 -10 25
-5 8 -10 11 -10 5z"/>
<path d="M4181 2774 c0 -11 3 -14 6 -6 3 7 2 16 -1 19 -3 4 -6 -2 -5 -13z"/>
<path d="M1171 2764 c0 -11 3 -14 6 -6 3 7 2 16 -1 19 -3 4 -6 -2 -5 -13z"/>
<path d="M4191 2734 c0 -11 3 -14 6 -6 3 7 2 16 -1 19 -3 4 -6 -2 -5 -13z"/>
<path d="M1161 2724 c0 -11 3 -14 6 -6 3 7 2 16 -1 19 -3 4 -6 -2 -5 -13z"/>
<path d="M1145 2660 c-4 -23 -5 -43 -2 -46 2 -3 7 14 11 37 4 23 5 44 2 46 -2
2 -7 -14 -11 -37z"/>
<path d="M4211 2654 c0 -11 3 -14 6 -6 3 7 2 16 -1 19 -3 4 -6 -2 -5 -13z"/>
<path d="M4222 2595 c0 -16 2 -22 5 -12 2 9 2 23 0 30 -3 6 -5 -1 -5 -18z"/>
<path d="M1132 2575 c0 -16 2 -22 5 -12 2 9 2 23 0 30 -3 6 -5 -1 -5 -18z"/>
<path d="M4233 2525 c0 -22 2 -30 4 -17 2 12 2 30 0 40 -3 9 -5 -1 -4 -23z"/>
<path d="M4244 2345 c0 -66 1 -92 3 -57 2 34 2 88 0 120 -2 31 -3 3 -3 -63z"/>
<path d="M1123 2195 c0 -27 2 -38 4 -22 2 15 2 37 0 50 -2 12 -4 0 -4 -28z"/>
<path d="M4232 2160 c0 -19 2 -27 5 -17 2 9 2 25 0 35 -3 9 -5 1 -5 -18z"/>
<path d="M1132 2110 c0 -19 2 -27 5 -17 2 9 2 25 0 35 -3 9 -5 1 -5 -18z"/>
<path d="M1142 2050 c0 -14 2 -19 5 -12 2 6 2 18 0 25 -3 6 -5 1 -5 -13z"/>
<path d="M1152 2000 c0 -14 2 -19 5 -12 2 6 2 18 0 25 -3 6 -5 1 -5 -13z"/>
<path d="M1161 1960 c0 -8 4 -24 9 -35 5 -13 9 -14 9 -5 0 8 -4 24 -9 35 -5
13 -9 14 -9 5z"/>
<path d="M4145 1820 c-3 -5 -1 -10 4 -10 6 0 11 5 11 10 0 6 -2 10 -4 10 -3 0
-8 -4 -11 -10z"/>
<path d="M4122 1745 c-17 -37 -14 -45 4 -12 9 16 14 31 11 33 -2 2 -9 -7 -15
-21z"/>
<path d="M1240 1727 c0 -23 143 -277 156 -277 6 0 -2 14 -27 50 -9 14 -42 72
-73 130 -31 58 -56 102 -56 97z"/>
<path d="M4054 1604 c-22 -41 -47 -84 -57 -95 -10 -10 -13 -19 -8 -19 11 0 84
119 101 164 17 47 3 27 -36 -50z"/>
<path d="M3937 1418 c-25 -35 -60 -79 -78 -98 -18 -19 -57 -62 -88 -96 -31
-33 -13 -17 39 36 81 83 192 220 177 220 -3 0 -26 -28 -50 -62z"/>
<path d="M1400 1436 c0 -2 8 -10 18 -17 15 -13 16 -12 3 4 -13 16 -21 21 -21
13z"/>
<path d="M3640 1114 c-30 -25 -79 -59 -107 -76 -29 -16 -56 -35 -60 -41 -15
-25 190 115 217 148 20 24 9 17 -50 -31z"/>
<path d="M1920 976 c0 -8 121 -68 126 -63 4 3 -42 28 -118 65 -5 2 -8 1 -8 -2z"/>
<path d="M2070 900 c8 -5 20 -10 25 -10 6 0 3 5 -5 10 -8 5 -19 10 -25 10 -5
0 -3 -5 5 -10z"/>
<path d="M2120 880 c8 -5 20 -10 25 -10 6 0 3 5 -5 10 -8 5 -19 10 -25 10 -5
0 -3 -5 5 -10z"/>
<path d="M3088 833 c7 -3 16 -2 19 1 4 3 -2 6 -13 5 -11 0 -14 -3 -6 -6z"/>
<path d="M2298 823 c7 -3 16 -2 19 1 4 3 -2 6 -13 5 -11 0 -14 -3 -6 -6z"/>
<path d="M3048 823 c7 -3 16 -2 19 1 4 3 -2 6 -13 5 -11 0 -14 -3 -6 -6z"/>
<path d="M2338 813 c6 -2 18 -2 25 0 6 3 1 5 -13 5 -14 0 -19 -2 -12 -5z"/>
<path d="M2998 813 c6 -2 18 -2 25 0 6 3 1 5 -13 5 -14 0 -19 -2 -12 -5z"/>
<path d="M2388 803 c6 -2 18 -2 25 0 6 3 1 5 -13 5 -14 0 -19 -2 -12 -5z"/>
<path d="M2948 803 c6 -2 18 -2 25 0 6 3 1 5 -13 5 -14 0 -19 -2 -12 -5z"/>
<path d="M2453 793 c9 -2 25 -2 35 0 9 3 1 5 -18 5 -19 0 -27 -2 -17 -5z"/>
<path d="M2883 793 c9 -2 25 -2 35 0 9 3 1 5 -18 5 -19 0 -27 -2 -17 -5z"/>
<path d="M2537 783 c18 -2 50 -2 70 0 21 2 7 4 -32 4 -38 0 -55 -2 -38 -4z"/>
<path d="M2758 783 c17 -2 47 -2 65 0 17 2 3 4 -33 4 -36 0 -50 -2 -32 -4z"/>
</g>
</svg>
